<svg xmlns="http://www.w3.org/2000/svg" viewBox="0 0 32 40" x="0px" y="0px"><title>wallet, card, money, payment failed, failed</title><g data-name="Layer 2"><path d="M26.12,5.5H5.88A3.884,3.884,0,0,0,2,9.38V19.62A3.884,3.884,0,0,0,5.88,23.5H18.032A6.494,6.494,0,0,0,30,20c0-.064-.008-.125-.01-.189s.01-.124.01-.191V9.38A3.884,3.884,0,0,0,26.12,5.5ZM4,9.38A1.882,1.882,0,0,1,5.88,7.5H26.12A1.882,1.882,0,0,1,28,9.38V10.5H4ZM5.88,21.5A1.882,1.882,0,0,1,4,19.62V12.5H28v2.821A6.484,6.484,0,0,0,17.182,21.5Zm17.62,3A4.5,4.5,0,1,1,28,20,4.505,4.505,0,0,1,23.5,24.5Z"/><path d="M25.707,17.793a1,1,0,0,0-1.414,0l-.793.793-.793-.793a1,1,0,0,0-1.414,1.414l.793.793-.793.793a1,1,0,1,0,1.414,1.414l.793-.793.793.793a1,1,0,0,0,1.414-1.414L24.914,20l.793-.793A1,1,0,0,0,25.707,17.793Z"/></g><text x="0" y="47" fill="#000000" font-size="5px" font-weight="bold" font-family="'Helvetica Neue', Helvetica, Arial-Unicode, Arial, Sans-serif">Created by Kiki Rizky</text><text x="0" y="52" fill="#000000" font-size="5px" font-weight="bold" font-family="'Helvetica Neue', Helvetica, Arial-Unicode, Arial, Sans-serif">from the Noun Project</text></svg>